<svg xmlns="http://www.w3.org/2000/svg" viewBox="0 0 815.33 808.7"><defs><style>.cls-1{fill:#43c490;}.cls-2{fill:none;}.cls-3{fill:#00315c;}.cls-4{fill:#fff;}</style></defs><g id="Layer_2" data-name="Layer 2"><g id="Layer_1-2" data-name="Layer 1"><path class="cls-1" d="M0,806.72,23,662.28H52.63l-8.9,55.4H77l8.9-55.4h29.68l-23,144.44H62.92l9.7-61.34H39.38l-9.7,61.34Z"/><path class="cls-1" d="M117.55,806.72l23-144.44h34.23l20,111.8q.59-7.32,1.39-16.92t1.78-19.2q1-9.59,2-16.32l9.49-59.36h26.12L212.53,806.72H178.3L158.51,694.93q-.39,6.33-1.09,15t-1.58,17.61q-.9,8.89-2.08,15.83l-10.09,63.31Z"/><path class="cls-1" d="M272.11,808.7q-16.42,0-24.54-11.47t-4.94-31.07l4.54-27.7q3.38-19.4,14.94-31a38.17,38.17,0,0,1,28-11.57q11.67,0,18.11,5.83t6.62,16.92h.4l2.57-20.77h29.48L330.08,806.72H301.39L304.75,786h-.59a32.07,32.07,0,0,1-12,16.82Q283.77,808.7,272.11,808.7ZM287,783c5.4,0,9.86-1.55,13.35-4.65s5.71-7.49,6.63-13.16l4.16-25.72q1.38-8.51-2.48-13.16t-12-4.65q-8.31,0-13.45,4.65t-6.53,13.16l-4.16,25.72q-1.38,8.51,2.38,13.16T287,783Z"/><path class="cls-1" d="M357,806.72,361.17,781l62.13-57.38H372.25l3.95-25.72h86.87l-4,25.72L397,781h55.21L448,806.72Z"/><path class="cls-1" d="M470.21,806.72,487.43,697.9h23.34l-2.57,15.83h1.19a24.8,24.8,0,0,1,7.51-12.87,18.78,18.78,0,0,1,12.87-4.94,13.85,13.85,0,0,1,11.08,4.85q4.15,4.85,4.35,13h1a25.14,25.14,0,0,1,8-12.87,20.37,20.37,0,0,1,13.56-4.94q9.69,0,14.74,7.71t3.07,20l-13.06,83.1H547L559.45,727q1.57-9.5-6.14-9.49T544,727l-12.46,79.74H511.17L523.63,727q1.59-9.5-6.13-9.49T508.2,727l-12.47,79.74Z"/><path class="cls-1" d="M639.6,808.7q-22,0-32.35-11.87T600,764.38l10.49-66.48H640.2l-10.49,66.28q-3,18.81,14,18.8t20-18.8l10.49-66.28h29.68l-10.49,66.48q-3.17,20.77-17.61,32.55T639.6,808.7Z"/><path class="cls-1" d="M776.55,806.72q-17.41,0-26.22-10.58t-6.23-28L756.56,689H722.92l4.36-26.71H790.6L773.78,768.14q-.79,5.34,1.88,8.61c1.78,2.18,4.45,3.26,8,3.26h31.66l-4.16,26.71Z"/><path class="cls-2" d="M370.33,259.45l-54.41,68.41-24.44-37.12,51.62-64.91A173.17,173.17,0,0,1,370.33,259.45Z"/><path class="cls-2" d="M507.78,91.09H404.47q4.77-1.38,9.62-2.52A180.69,180.69,0,0,1,507.78,91.09Z"/><path class="cls-1" d="M650.46,403.1l3.88-5.86c-1.2,1.94-2.44,3.87-3.7,5.79Z"/><path class="cls-3" d="M656,394.59h0c-.53.86-1.06,1.73-1.6,2.59l0,.05-3.88,5.86h0l-3.94,5.95L516.17,607.11a14.65,14.65,0,0,1-12.23,6.59H467.05A14.65,14.65,0,0,1,454.82,591L584.07,394.62,510.72,283.21l-24.44-37.14L498,231.38a32.21,32.21,0,0,1,52.11,2.34h0l66.48,101,9,13.73Z"/><path class="cls-3" d="M656,394.68l-1.66,2.51c.54-.86,1.07-1.73,1.6-2.59Z"/><path class="cls-3" d="M360.64,271.64,334,305.12A21,21,0,0,1,300,303.59l-.08-.11A21.05,21.05,0,0,1,301,278.8l26.62-33.48a21,21,0,0,1,33.12.21c.09.12.18.23.26.35A21,21,0,0,1,360.64,271.64Z"/><polygon class="cls-3" points="510.72 283.21 287.23 564.23 264.03 525.54 264.03 525.53 486.28 246.07 510.72 283.21"/><rect class="cls-3" x="523.29" y="75.96" width="2.46" height="42.55" transform="translate(206.34 -330.94) rotate(42.88)"/><path class="cls-3" d="M561.5,40h0L362.93,37.26h0c.28-20.8,14-37.48,30.63-37.26L531.88,1.87C548.52,2.1,561.78,19.14,561.5,40Z"/><circle class="cls-1" cx="474.34" cy="123.61" r="12.28"/><circle class="cls-4" cx="474.34" cy="123.61" r="8.71"/><rect class="cls-3" x="498.46" y="128.51" width="2.95" height="11.85" transform="translate(37.81 -98.9) rotate(11.74)"/><circle class="cls-1" cx="436.04" cy="129.01" r="12.28"/><circle class="cls-4" cx="436.04" cy="129.01" r="8.71"/><circle class="cls-1" cx="494.47" cy="152.58" r="14.73"/><circle class="cls-4" cx="494.47" cy="152.58" r="10.8"/><circle class="cls-1" cx="468.45" cy="96.11" r="8.84"/><circle class="cls-4" cx="468.45" cy="96.11" r="6.27"/><circle class="cls-1" cx="457.15" cy="150.12" r="8.84"/><circle class="cls-4" cx="457.15" cy="150.12" r="6.27"/><rect class="cls-1" x="493.34" y="79.39" width="2.46" height="42.55" transform="translate(200.67 -309.64) rotate(42.88)"/><circle class="cls-3" cx="504.3" cy="120.17" r="12.28"/><path class="cls-1" d="M246.56,140.37l48.54,9.26,9.82,5.9.44-.42,16.93-15.91.17-.15a195.7,195.7,0,0,1,82-48c3.19-.94,6.4-1.77,9.62-2.53a185.52,185.52,0,0,1,43.89-5h1l1.9,0,1,0,1.34,0,1.43.06,1.62.08L468,84l1.61.11,2,.16,1.58.13,1.06.11c1.22.11,2.43.25,3.64.39h0L479,85l.4.06,1.5.19h0l2,.28.32,0,1.92.3,1.38.23,1.11.19.28,0q2.79.49,5.56,1.08l.21,0,1.59.35,1.58.35,3.16.77.37.09c.92.23,1.84.48,2.75.73l2.65.74h.06l1,.29,1,.31q7.9,2.37,15.63,5.53l2.4,1h0a172.5,172.5,0,0,1,78.66,67.67,183.58,183.58,0,0,1,24.66,64.49c6,33.35-.07,71.29-12.59,104.87l9,13.73L656,394.59c35-57.14,47.2-119,36.3-179.67C684,168.76,663,125.51,630.53,91.1a232.34,232.34,0,0,0-69.84-50.65l-14.8-.22h-.64L398.73,38,363,37.45l-.08,0c-.4.17-.81.32-1.2.51a264.11,264.11,0,0,0-79.85,52.22q-4.69,4.46-9.18,9.17Z"/><circle class="cls-4" cx="504.3" cy="120.17" r="8.71"/><rect class="cls-1" x="479.25" y="73.52" width="2.46" height="20.63" transform="translate(185.44 -304.55) rotate(42.88)"/><rect class="cls-1" x="469.92" y="102.98" width="2.46" height="11.79" transform="matrix(0.96, -0.27, 0.27, 0.96, -11.81, 133.02)"/><rect class="cls-1" x="451.75" y="97.09" width="2.95" height="27.99" transform="translate(211.29 -287.94) rotate(45)"/><rect class="cls-1" x="464.4" y="131.27" width="2.95" height="13.89" transform="translate(197.38 -266.82) rotate(39.94)"/><path class="cls-3" d="M272.7,99.38l23,39.11.36.61L305.41,155l-.05.08L172.71,373.28,264,525.53h0l23.2,38.69h0L301,587.13a17.55,17.55,0,0,1-15.05,26.57h-31a17.53,17.53,0,0,1-15.05-8.52L223,577.09h0l-112.77-188-9.51-15.83,9.51-15.85,136.3-217.06Z"/></g></g></svg>